<svg width="26" height="22" viewBox="0 0 26 22" fill="none" xmlns="http://www.w3.org/2000/svg">
<path d="M11.5914 20.5718C12.1763 20.5718 12.6506 20.1556 12.6506 19.6422C12.6506 19.1288 12.1763 18.7126 11.5914 18.7126C11.0064 18.7126 10.5322 19.1288 10.5322 19.6422C10.5322 20.1556 11.0064 20.5718 11.5914 20.5718Z" stroke="#363636" stroke-width="1.5" stroke-linecap="round" stroke-linejoin="round"/>
<path d="M23.2423 20.5718C23.8272 20.5718 24.3014 20.1556 24.3014 19.6422C24.3014 19.1288 23.8272 18.7126 23.2423 18.7126C22.6573 18.7126 22.1831 19.1288 22.1831 19.6422C22.1831 20.1556 22.6573 20.5718 23.2423 20.5718Z" stroke="#363636" stroke-width="1.5" stroke-linecap="round" stroke-linejoin="round"/>
<path d="M1 1.05518H5.23665L8.07521 13.499C8.17206 13.9269 8.43735 14.3112 8.82462 14.5847C9.21189 14.8583 9.69647 15.0036 10.1935 14.9952H20.4886C20.9857 15.0036 21.4703 14.8583 21.8575 14.5847C22.2448 14.3112 22.5101 13.9269 22.6069 13.499L24.3016 5.70186H6.29582" stroke="#363636" stroke-width="1.5" stroke-linecap="round" stroke-linejoin="round"/>
</svg>
