<svg width="88" height="89" viewBox="0 0 88 89" fill="none" xmlns="http://www.w3.org/2000/svg">
<g filter="url(#filter0_d_338_40)">
<circle cx="43.6521" cy="40.5" r="39.6521" fill="#DAEEFF"/>
</g>
<g clip-path="url(#clip0_338_40)">
<path d="M60.8732 46.0114C58.9384 46.0114 57.3643 47.5859 57.3643 49.5203C57.3643 51.4551 58.9384 53.0292 60.8732 53.0292C62.8076 53.0292 64.3821 51.4551 64.3821 49.5203C64.3821 47.5859 62.8076 46.0114 60.8732 46.0114ZM60.8732 50.5523C60.304 50.5523 59.8412 50.0895 59.8412 49.5203C59.8412 48.951 60.304 48.4883 60.8732 48.4883C61.4424 48.4883 61.9052 48.951 61.9052 49.5203C61.9052 50.0895 61.4424 50.5523 60.8732 50.5523Z" fill="#0C0F86"/>
<path d="M60.5352 31.4252H54.4726C54.0164 31.4252 53.647 31.7951 53.647 32.2508V48.3506C53.647 48.8064 54.0164 49.1763 54.4726 49.1763H55.3482C55.7569 49.1763 56.1189 48.8819 56.1718 48.4766C56.4958 45.9939 58.4761 44.4541 60.8717 44.4541C63.2672 44.4541 65.2475 45.9939 65.5716 48.4766C65.6244 48.882 65.986 49.1763 66.3951 49.1763H67.2699C67.7256 49.1763 68.0955 48.8064 68.0955 48.3506V40.3007C68.0955 40.1067 68.0274 39.9193 67.9031 39.7711L61.1684 31.7212C61.0116 31.5338 60.7796 31.4252 60.5352 31.4252ZM55.2982 38.0302V33.9021C55.2982 33.4464 55.6677 33.0764 56.1239 33.0764H59.7608C60.0056 33.0764 60.238 33.1854 60.3948 33.3736L63.8348 37.5018C64.2827 38.0397 63.9005 38.8559 63.2004 38.8559H56.1239C55.6677 38.8559 55.2982 38.4864 55.2982 38.0302Z" fill="#0C0F86"/>
<path d="M27.6391 49.1767H29.7532C30.1619 49.1767 30.5239 48.8823 30.5767 48.477C30.9008 45.9943 32.8811 44.4546 35.2766 44.4546C37.6722 44.4546 39.6525 45.9944 39.9765 48.477C40.0293 48.8824 40.391 49.1767 40.8001 49.1767H51.1696C51.6254 49.1767 51.9953 48.8068 51.9953 48.3511V27.7103C51.9953 27.2546 51.6254 26.8846 51.1696 26.8846H27.6391C27.1829 26.8846 26.8135 27.2546 26.8135 27.7103V48.3511C26.8135 48.8069 27.1829 49.1767 27.6391 49.1767Z" fill="#0C0F86"/>
<path d="M35.2765 46.0112C33.3417 46.0112 31.7676 47.5857 31.7676 49.5202C31.7676 51.455 33.3417 53.0291 35.2765 53.0291C37.211 53.0291 38.7855 51.455 38.7855 49.5202C38.7855 47.5857 37.211 46.0112 35.2765 46.0112ZM35.2765 50.5522C34.7073 50.5522 34.2445 50.0894 34.2445 49.5202C34.2445 48.9509 34.7073 48.4881 35.2765 48.4881C35.8458 48.4881 36.3086 48.9509 36.3086 49.5202C36.3086 50.0894 35.8458 50.5522 35.2765 50.5522Z" fill="#0C0F86"/>
</g>
<defs>
<filter id="filter0_d_338_40" x="0" y="0.8479" width="87.3042" height="87.3042" filterUnits="userSpaceOnUse" color-interpolation-filters="sRGB">
<feFlood flood-opacity="0" result="BackgroundImageFix"/>
<feColorMatrix in="SourceAlpha" type="matrix" values="0 0 0 0 0 0 0 0 0 0 0 0 0 0 0 0 0 0 127 0" result="hardAlpha"/>
<feOffset dy="4"/>
<feGaussianBlur stdDeviation="2"/>
<feComposite in2="hardAlpha" operator="out"/>
<feColorMatrix type="matrix" values="0 0 0 0 0 0 0 0 0 0 0 0 0 0 0 0 0 0 0.25 0"/>
<feBlend mode="normal" in2="BackgroundImageFix" result="effect1_dropShadow_338_40"/>
<feBlend mode="normal" in="SourceGraphic" in2="effect1_dropShadow_338_40" result="shape"/>
</filter>
<clipPath id="clip0_338_40">
<rect width="41.2816" height="41.2816" fill="white" transform="translate(26.8135 19.316)"/>
</clipPath>
</defs>
</svg>
