<svg width="24" height="25" viewBox="0 0 24 25" fill="none" xmlns="http://www.w3.org/2000/svg">
<path d="M24 12.0705C23.9984 9.76434 23.3401 7.50691 22.1029 5.56533C20.8658 3.62376 19.1015 2.07932 17.019 1.11477C14.9365 0.150228 12.6228 -0.194043 10.3518 0.122699C8.08087 0.439442 5.94763 1.40394 4.20459 2.90206C2.46154 4.40017 1.18163 6.3692 0.516338 8.57612C-0.148959 10.783 -0.1718 13.1355 0.450518 15.355C1.07284 17.5746 2.31426 19.5684 4.02789 21.1005C5.74152 22.6326 7.85561 23.6388 10.12 24.0001V15.5608H7.12V12.0705H10.12V9.415C10.12 6.3974 11.92 4.7176 14.66 4.7176C15.5581 4.7307 16.4539 4.81139 17.34 4.959V7.97661H15.83C15.5694 7.93597 15.3029 7.95546 15.0509 8.03362C14.7989 8.11177 14.5678 8.24654 14.3751 8.42773C14.1825 8.60892 14.0333 8.83179 13.9388 9.0795C13.8444 9.32721 13.8072 9.59328 13.83 9.85758V12.1208H17.2L16.67 15.6111H13.87V24.0504C16.7032 23.6008 19.2826 22.1454 21.1409 19.9477C22.9993 17.75 24.0135 14.9555 24 12.0705Z" fill="white"/>
</svg>
