<svg width="88" height="89" viewBox="0 0 88 89" fill="none" xmlns="http://www.w3.org/2000/svg">
<g filter="url(#filter0_d_338_42)">
<circle cx="44.1848" cy="40.5" r="39.6521" fill="#DAEEFF"/>
</g>
<g clip-path="url(#clip0_338_42)">
<path d="M39.4778 42.6955L44.7285 38.7122L49.9566 42.6955L47.965 36.2453L53.2157 32.0809H46.7881L44.7285 25.7212L42.669 32.0809H36.2414L41.4695 36.2453L39.4778 42.6955ZM62.8345 34.3441C62.8345 24.3406 54.7321 16.2382 44.7285 16.2382C34.725 16.2382 26.6226 24.3406 26.6226 34.3441C26.6226 38.9385 28.3426 43.1029 31.1491 46.2941V63.7664L44.7285 59.2399L58.308 63.7664V46.2941C61.1145 43.1029 62.8345 38.9385 62.8345 34.3441ZM44.7285 20.7647C52.2199 20.7647 58.308 26.8528 58.308 34.3441C58.308 41.8355 52.2199 47.9236 44.7285 47.9236C37.2372 47.9236 31.1491 41.8355 31.1491 34.3441C31.1491 26.8528 37.2372 20.7647 44.7285 20.7647ZM44.7285 54.7134L35.6755 57.0219V50.0058C38.3462 51.5448 41.4242 52.4501 44.7285 52.4501C48.0329 52.4501 51.1109 51.5448 53.7815 50.0058V57.0219L44.7285 54.7134Z" fill="#0C0F86"/>
</g>
<defs>
<filter id="filter0_d_338_42" x="0.532715" y="0.8479" width="87.3042" height="87.3042" filterUnits="userSpaceOnUse" color-interpolation-filters="sRGB">
<feFlood flood-opacity="0" result="BackgroundImageFix"/>
<feColorMatrix in="SourceAlpha" type="matrix" values="0 0 0 0 0 0 0 0 0 0 0 0 0 0 0 0 0 0 127 0" result="hardAlpha"/>
<feOffset dy="4"/>
<feGaussianBlur stdDeviation="2"/>
<feComposite in2="hardAlpha" operator="out"/>
<feColorMatrix type="matrix" values="0 0 0 0 0 0 0 0 0 0 0 0 0 0 0 0 0 0 0.25 0"/>
<feBlend mode="normal" in2="BackgroundImageFix" result="effect1_dropShadow_338_42"/>
<feBlend mode="normal" in="SourceGraphic" in2="effect1_dropShadow_338_42" result="shape"/>
</filter>
<clipPath id="clip0_338_42">
<rect width="54.318" height="54.318" fill="white" transform="translate(17.5693 11.7117)"/>
</clipPath>
</defs>
</svg>
