<svg width="17" height="24" viewBox="0 0 17 24" fill="none" xmlns="http://www.w3.org/2000/svg">
<path d="M8.08025 0C3.62477 0 0 3.83729 0 8.55394C0 14.4074 7.23103 23.0007 7.5389 23.3637C7.82807 23.7047 8.33295 23.7041 8.6216 23.3637C8.92946 23.0007 16.1605 14.4074 16.1605 8.55394C16.1604 3.83729 12.5357 0 8.08025 0ZM8.08025 12.8577C5.83859 12.8577 4.01491 10.927 4.01491 8.55394C4.01491 6.18085 5.83863 4.25026 8.08025 4.25026C10.3219 4.25026 12.1455 6.1809 12.1455 8.55399C12.1455 10.9271 10.3219 12.8577 8.08025 12.8577Z" fill="white"/>
</svg>
