<svg width="15" height="16" viewBox="0 0 15 16" fill="none" xmlns="http://www.w3.org/2000/svg">
<path d="M14.5801 11.2869L12.4862 9.31226C11.7384 8.60703 10.4671 8.88915 10.168 9.80592C9.94361 10.4407 9.1958 10.7933 8.52277 10.6522C7.02714 10.2996 5.00804 8.46598 4.63413 6.98499C4.40979 6.35025 4.85848 5.64501 5.53151 5.43347C6.50367 5.15138 6.8028 3.95248 6.05498 3.24725L3.9611 1.27259C3.36285 0.778928 2.46547 0.778928 1.942 1.27259L0.521157 2.61254C-0.89969 4.023 0.67072 7.76074 4.18545 11.0753C7.70017 14.3899 11.6636 15.9415 13.1592 14.531L14.5801 13.191C15.1036 12.6269 15.1036 11.7806 14.5801 11.2869Z" fill="black"/>
</svg>
