<svg width="20" height="20" viewBox="0 0 20 20" fill="none" xmlns="http://www.w3.org/2000/svg">
<path d="M18.5589 14.0839L15.8936 11.4058C14.9417 10.4494 13.3235 10.832 12.9427 12.0754C12.6572 12.9362 11.7053 13.4145 10.8486 13.2231C8.9448 12.7449 6.3747 10.2581 5.89876 8.24951C5.61319 7.38865 6.18433 6.43219 7.04103 6.14528C8.27848 5.7627 8.65924 4.13671 7.70735 3.18024L5.04206 0.502144C4.28055 -0.167381 3.13829 -0.167381 2.47196 0.502144L0.663377 2.31943C-1.14521 4.23236 0.853755 9.30162 5.32763 13.797C9.8015 18.2924 14.8465 20.3966 16.7503 18.4837L18.5589 16.6664C19.2252 15.9012 19.2252 14.7535 18.5589 14.0839Z" fill="white"/>
</svg>
