<svg width="350" height="70" viewBox="0 0 436 118" fill="none" xmlns="http://www.w3.org/2000/svg">
<path d="M265.364 60.656L421.371 60.656L421.371 53.0741L265.364 53.0741L265.364 60.656Z" fill="#0C0F86"/>
<path d="M170.3 53.0742H16.7305V60.6562H170.3V53.0742Z" fill="#0C0F86"/>
<path d="M206.859 12.637C199.549 12.637 192.236 12.637 184.925 12.637C184.925 21.9029 184.925 31.1687 184.925 40.4374C187.493 39.9606 193.572 38.4503 198.876 33.1448C206.918 25.0916 206.897 14.5827 206.859 12.637Z" fill="#67A9E2"/>
<path d="M186.145 45.0536C186.145 50.2421 186.145 55.4278 186.145 60.6163C186.622 60.6709 189.74 60.9697 192.247 58.4702C194.327 56.396 194.621 53.7615 194.677 53.1036C194.677 49.3027 194.677 45.5018 194.677 41.7009C193.858 42.4623 192.447 43.5798 190.442 44.3182C188.697 44.956 187.164 45.0651 186.145 45.0536Z" fill="#6AAAE2"/>
<path d="M228.808 12.637C236.118 12.637 243.431 12.637 250.741 12.637C250.741 21.9029 250.741 31.1687 250.741 40.4374C248.174 39.9606 242.095 38.4503 236.79 33.1448C228.748 25.0944 228.77 14.5827 228.808 12.637Z" fill="#67A9E2"/>
<path d="M250.741 45.0536C250.741 50.2421 250.741 55.4278 250.741 60.6163C250.264 60.6709 247.146 60.9697 244.639 58.4702C242.559 56.396 242.265 53.7615 242.209 53.1036C242.209 49.3027 242.209 45.5018 242.209 41.7009C243.028 42.4623 244.439 43.5798 246.445 44.3182C248.189 44.9588 249.722 45.068 250.741 45.0536Z" fill="#6AAAE2"/>
<path d="M251.524 8.84559H184.145C181.885 8.84559 180.052 6.86476 180.052 4.4228C180.052 1.98083 181.885 0 184.145 0H251.524C253.784 0 255.618 1.98083 255.618 4.4228C255.62 6.86476 253.787 8.84559 251.524 8.84559Z" fill="#0C0F86"/>
<path d="M426.859 65.7109C431.908 65.7109 436 61.4678 436 56.2335C436 50.9993 431.908 46.7561 426.859 46.7561C421.811 46.7561 417.718 50.9993 417.718 56.2335C417.718 61.4678 421.811 65.7109 426.859 65.7109Z" fill="#0C0F86"/>
<path d="M10.6367 65.7109C16.0217 65.7109 20.3871 61.4678 20.3871 56.2335C20.3871 50.9993 16.0217 46.7561 10.6367 46.7561C5.25165 46.7561 0.88623 50.9993 0.88623 56.2335C0.88623 61.4678 5.25165 65.7109 10.6367 65.7109Z" fill="#0C0F86"/>
<path d="M41.5599 97.0489V85.0489C41.5599 81.3289 41.4999 77.9089 41.3799 74.7889C35.6999 74.7889 31.8999 74.8689 29.9799 75.0289C29.8599 74.6689 29.7999 74.1289 29.7999 73.4089C29.7999 72.6089 29.9999 72.0689 30.3999 71.7889C30.8399 71.5089 31.5199 71.3489 32.4399 71.3089C33.4399 71.2689 35.5799 71.2489 38.8599 71.2489H45.9399C52.2599 71.2489 56.1199 71.1889 57.5199 71.0689C57.6399 71.4289 57.6999 71.9489 57.6999 72.6289C57.6999 73.4289 57.4799 73.9689 57.0399 74.2489C56.6399 74.5289 55.9799 74.6889 55.0599 74.7289C53.8199 74.7689 50.9599 74.7889 46.4799 74.7889C46.1999 80.5089 46.0599 84.4689 46.0599 86.6689V98.7289C46.0599 104.129 46.4399 108.089 47.1999 110.609C46.4799 110.929 45.5399 111.089 44.3799 111.089C43.2199 111.089 42.4399 110.829 42.0399 110.309C41.6399 109.789 41.4399 108.909 41.4399 107.669C41.4399 107.029 41.4599 105.449 41.4999 102.929C41.5399 100.409 41.5599 98.4489 41.5599 97.0489ZM63.5105 100.109V90.7489C63.5105 86.5889 63.3905 82.9889 63.1505 79.9489C63.8705 79.8289 64.6305 79.7689 65.4305 79.7689C67.3105 79.7689 68.2505 80.3689 68.2505 81.5689C68.2505 81.7289 68.2105 82.3689 68.1305 83.4889C68.0505 84.6089 67.9705 86.0089 67.8905 87.6889C67.8505 89.3689 67.8305 90.9689 67.8305 92.4889C69.5105 92.5289 72.0305 92.5489 75.3905 92.5489C78.6305 92.5489 81.0705 92.5289 82.7105 92.4889V90.5689C82.6705 86.3689 82.5505 82.8289 82.3505 79.9489C83.0705 79.8289 83.8305 79.7689 84.6305 79.7689C86.5105 79.7689 87.4505 80.3689 87.4505 81.5689C87.4505 81.7289 87.4105 82.3489 87.3305 83.4289C87.2505 84.5089 87.1705 85.8489 87.0905 87.4489C87.0505 89.0489 87.0305 90.5689 87.0305 92.0089V101.429C87.0305 105.629 87.3505 108.709 87.9905 110.669C87.3905 110.909 86.5105 111.029 85.3505 111.029C84.2705 111.029 83.5305 110.829 83.1305 110.429C82.7705 110.029 82.5905 109.349 82.5905 108.389C82.5905 107.909 82.6105 106.689 82.6505 104.729C82.6905 102.769 82.7105 101.229 82.7105 100.109V95.6689C81.0305 95.7089 78.5705 95.7289 75.3305 95.7289C71.9705 95.7289 69.4705 95.7089 67.8305 95.6689V101.429C67.8305 105.629 68.1505 108.709 68.7905 110.669C68.1905 110.909 67.3105 111.029 66.1505 111.029C65.0705 111.029 64.3305 110.829 63.9305 110.429C63.5705 110.029 63.3905 109.349 63.3905 108.389C63.3905 107.909 63.4105 106.689 63.4505 104.729C63.4905 102.769 63.5105 101.229 63.5105 100.109ZM102.627 83.3089C102.747 84.2689 102.807 87.3689 102.807 92.6089H106.647C109.327 92.6089 111.247 92.5489 112.407 92.4289C112.527 92.7489 112.587 93.1889 112.587 93.7489C112.587 94.5489 112.407 95.1089 112.047 95.4289C111.727 95.7089 111.207 95.8689 110.487 95.9089C109.647 95.9489 108.507 95.9689 107.067 95.9689H102.807C102.807 102.409 102.927 106.289 103.167 107.609C104.607 107.689 105.767 107.729 106.647 107.729C111.927 107.729 115.387 107.369 117.027 106.649C117.307 107.369 117.447 108.129 117.447 108.929C117.447 109.569 117.287 110.029 116.967 110.309C116.367 110.749 113.647 110.969 108.807 110.969C107.847 110.969 106.307 110.949 104.187 110.909C102.067 110.909 100.967 110.909 100.887 110.909C99.8867 110.869 99.2067 110.649 98.8467 110.249C98.5267 109.849 98.3667 109.189 98.3667 108.269C98.3667 107.709 98.3867 106.489 98.4267 104.609C98.4667 102.689 98.4867 101.189 98.4867 100.109V90.9289C98.4867 86.3689 98.2467 82.7889 97.7667 80.1889C101.687 79.9089 105.347 79.7689 108.747 79.7689C113.587 79.7689 116.307 80.0089 116.907 80.4889C117.227 80.7689 117.387 81.2289 117.387 81.8689C117.387 82.6689 117.247 83.4289 116.967 84.1489C115.047 83.5089 112.047 83.1889 107.967 83.1889C106.407 83.1889 104.627 83.2289 102.627 83.3089ZM148.751 92.6689C151.471 92.6689 153.591 91.8889 155.111 90.3289C156.671 88.7289 157.451 86.5889 157.451 83.9089C157.451 80.2289 156.591 77.6889 154.871 76.2889C153.151 74.8889 150.471 74.1889 146.831 74.1889C145.791 74.1889 144.351 74.2689 142.511 74.4289C142.671 76.7489 142.751 80.8289 142.751 86.6689V91.1689C144.511 92.1689 146.511 92.6689 148.751 92.6689ZM138.251 97.0489V85.0489C138.251 79.5289 137.991 74.9289 137.471 71.2489C140.431 70.7689 143.411 70.5289 146.411 70.5289C157.131 70.5289 162.491 74.8489 162.491 83.4889C162.491 87.6489 161.231 90.8289 158.711 93.0289C156.231 95.2289 153.311 96.3289 149.951 96.3289C147.111 96.3289 144.711 95.6889 142.751 94.4089V98.7289C142.751 104.129 143.131 108.089 143.891 110.609C143.171 110.929 142.231 111.089 141.071 111.089C139.911 111.089 139.131 110.829 138.731 110.309C138.331 109.789 138.131 108.909 138.131 107.669C138.131 107.029 138.151 105.449 138.191 102.929C138.231 100.409 138.251 98.4489 138.251 97.0489ZM181.865 111.329C177.225 111.329 173.525 109.889 170.765 107.009C168.005 104.129 166.625 100.269 166.625 95.4289C166.625 90.5489 168.005 86.6689 170.765 83.7889C173.525 80.9089 177.225 79.4689 181.865 79.4689C186.545 79.4689 190.265 80.9089 193.025 83.7889C195.825 86.6689 197.225 90.5489 197.225 95.4289C197.225 100.269 195.825 104.129 193.025 107.009C190.265 109.889 186.545 111.329 181.865 111.329ZM192.425 96.2689C192.425 93.9889 192.105 91.8689 191.465 89.9089C190.825 87.9489 189.665 86.2689 187.985 84.8689C186.345 83.4689 184.325 82.7689 181.925 82.7689C178.685 82.7689 176.105 83.8289 174.185 85.9489C172.305 88.0689 171.365 90.7689 171.365 94.0489C171.365 96.4489 171.685 98.6689 172.325 100.709C172.965 102.749 174.105 104.489 175.745 105.929C177.385 107.369 179.425 108.089 181.865 108.089C185.225 108.089 187.825 107.009 189.665 104.849C191.505 102.649 192.425 99.7889 192.425 96.2689ZM205.412 100.469V90.7489C205.412 86.5889 205.292 82.9689 205.052 79.8889C205.692 79.8089 206.472 79.7689 207.392 79.7689C209.232 79.7689 210.152 80.3689 210.152 81.5689C210.152 81.7289 210.112 82.3489 210.032 83.4289C209.992 84.5089 209.932 85.8489 209.852 87.4489C209.772 89.0489 209.732 90.5689 209.732 92.0089V96.1489C209.732 102.469 209.852 106.289 210.092 107.609C211.452 107.689 212.512 107.729 213.272 107.729C218.272 107.729 221.512 107.369 222.992 106.649C223.232 107.409 223.352 108.169 223.352 108.929C223.352 109.569 223.212 110.029 222.932 110.309C222.332 110.749 219.752 110.969 215.192 110.969C214.312 110.969 212.852 110.949 210.812 110.909C208.812 110.909 207.752 110.909 207.632 110.909C206.712 110.869 206.092 110.649 205.772 110.249C205.452 109.849 205.292 109.189 205.292 108.269C205.292 107.789 205.312 106.649 205.352 104.849C205.392 103.049 205.412 101.589 205.412 100.469ZM233.115 83.3089C233.235 84.2689 233.295 87.3689 233.295 92.6089H237.135C239.815 92.6089 241.735 92.5489 242.895 92.4289C243.015 92.7489 243.075 93.1889 243.075 93.7489C243.075 94.5489 242.895 95.1089 242.535 95.4289C242.215 95.7089 241.695 95.8689 240.975 95.9089C240.135 95.9489 238.995 95.9689 237.555 95.9689H233.295C233.295 102.409 233.415 106.289 233.655 107.609C235.095 107.689 236.255 107.729 237.135 107.729C242.415 107.729 245.875 107.369 247.515 106.649C247.795 107.369 247.935 108.129 247.935 108.929C247.935 109.569 247.775 110.029 247.455 110.309C246.855 110.749 244.135 110.969 239.295 110.969C238.335 110.969 236.795 110.949 234.675 110.909C232.555 110.909 231.455 110.909 231.375 110.909C230.375 110.869 229.695 110.649 229.335 110.249C229.015 109.849 228.855 109.189 228.855 108.269C228.855 107.709 228.875 106.489 228.915 104.609C228.955 102.689 228.975 101.189 228.975 100.109V90.9289C228.975 86.3689 228.735 82.7889 228.255 80.1889C232.175 79.9089 235.835 79.7689 239.235 79.7689C244.075 79.7689 246.795 80.0089 247.395 80.4889C247.715 80.7689 247.875 81.2289 247.875 81.8689C247.875 82.6689 247.735 83.4289 247.455 84.1489C245.535 83.5089 242.535 83.1889 238.455 83.1889C236.895 83.1889 235.115 83.2289 233.115 83.3089ZM288.059 78.9289C287.379 77.6089 286.159 76.5289 284.399 75.6889C282.639 74.8089 280.819 74.3689 278.939 74.3689C276.899 74.3689 275.179 74.9289 273.779 76.0489C272.419 77.1689 271.739 78.8089 271.739 80.9689C271.739 82.6089 272.239 83.9689 273.239 85.0489C274.279 86.0889 275.559 86.8289 277.079 87.2689C278.599 87.6689 280.259 88.1689 282.059 88.7689C283.859 89.3689 285.519 89.9889 287.039 90.6289C288.559 91.2689 289.819 92.3689 290.819 93.9289C291.859 95.4889 292.379 97.4289 292.379 99.7489C292.379 101.829 291.979 103.669 291.179 105.269C290.379 106.829 289.299 108.049 287.939 108.929C286.579 109.809 285.099 110.469 283.499 110.909C281.939 111.309 280.279 111.509 278.519 111.509C275.399 111.509 272.639 110.969 270.239 109.889C267.879 108.769 266.699 107.429 266.699 105.869C266.699 105.349 266.859 104.889 267.179 104.489C267.539 104.049 267.879 103.729 268.199 103.529C268.519 103.329 269.039 103.049 269.759 102.689C270.519 104.169 271.879 105.389 273.839 106.349C275.839 107.269 277.859 107.729 279.899 107.729C282.139 107.729 284.059 107.129 285.659 105.929C287.259 104.689 288.059 102.929 288.059 100.649C288.059 98.7689 287.339 97.2889 285.899 96.2089C284.499 95.0889 282.779 94.2489 280.739 93.6889C278.739 93.1289 276.719 92.5089 274.679 91.8289C272.679 91.1489 270.959 90.0089 269.519 88.4089C268.119 86.7689 267.419 84.6089 267.419 81.9289C267.419 78.2489 268.619 75.4289 271.019 73.4689C273.459 71.5089 276.559 70.5289 280.319 70.5289C283.079 70.5289 285.619 71.0089 287.939 71.9689C290.299 72.9289 291.479 74.2489 291.479 75.9289C291.479 77.5289 290.339 78.5289 288.059 78.9289ZM305.494 100.109V90.7489C305.494 88.9089 305.454 86.4289 305.374 83.3089C300.694 83.3089 297.594 83.3689 296.074 83.4889C295.994 83.2889 295.954 82.7889 295.954 81.9889C295.954 81.2689 296.114 80.7689 296.434 80.4889C296.794 80.2089 297.354 80.0689 298.114 80.0689C298.434 80.0689 299.214 80.0689 300.454 80.0689C301.734 80.0289 302.774 80.0089 303.574 80.0089H309.394C314.714 80.0089 317.954 79.9689 319.114 79.8889C319.194 80.2889 319.234 80.7689 319.234 81.3289C319.234 82.6489 318.514 83.3089 317.074 83.3089H310.114C310.114 83.7489 310.074 84.5089 309.994 85.5889C309.954 86.6289 309.914 87.7089 309.874 88.8289C309.834 89.9489 309.814 91.0089 309.814 92.0089V101.429C309.814 105.629 310.134 108.709 310.774 110.669C310.174 110.909 309.294 111.029 308.134 111.029C307.054 111.029 306.314 110.829 305.914 110.429C305.554 110.029 305.374 109.349 305.374 108.389C305.374 107.909 305.394 106.689 305.434 104.729C305.474 102.769 305.494 101.229 305.494 100.109ZM337.08 111.329C332.44 111.329 328.74 109.889 325.98 107.009C323.22 104.129 321.84 100.269 321.84 95.4289C321.84 90.5489 323.22 86.6689 325.98 83.7889C328.74 80.9089 332.44 79.4689 337.08 79.4689C341.76 79.4689 345.48 80.9089 348.24 83.7889C351.04 86.6689 352.44 90.5489 352.44 95.4289C352.44 100.269 351.04 104.129 348.24 107.009C345.48 109.889 341.76 111.329 337.08 111.329ZM347.64 96.2689C347.64 93.9889 347.32 91.8689 346.68 89.9089C346.04 87.9489 344.88 86.2689 343.2 84.8689C341.56 83.4689 339.54 82.7689 337.14 82.7689C333.9 82.7689 331.32 83.8289 329.4 85.9489C327.52 88.0689 326.58 90.7689 326.58 94.0489C326.58 96.4489 326.9 98.6689 327.54 100.709C328.18 102.749 329.32 104.489 330.96 105.929C332.6 107.369 334.64 108.089 337.08 108.089C340.44 108.089 343.04 107.009 344.88 104.849C346.72 102.649 347.64 99.7889 347.64 96.2689ZM378.747 106.709C379.627 107.589 380.587 108.029 381.627 108.029C381.827 108.029 382.247 107.989 382.887 107.909C383.167 108.469 383.307 108.989 383.307 109.469C383.307 110.709 382.007 111.329 379.407 111.329C378.247 111.329 377.127 110.909 376.047 110.069C374.967 109.189 373.927 107.949 372.927 106.349C371.927 104.709 371.147 103.349 370.587 102.269C370.067 101.149 369.427 99.7289 368.667 98.0089C367.907 97.8489 367.527 97.4489 367.527 96.8089C367.527 96.4089 367.667 95.8089 367.947 95.0089C368.827 95.2089 369.587 95.3089 370.227 95.3089C372.067 95.3089 373.567 94.7489 374.727 93.6289C375.887 92.4689 376.467 90.9089 376.467 88.9489C376.467 86.6289 375.827 85.0089 374.547 84.0889C373.267 83.1689 371.307 82.7089 368.667 82.7089C368.427 82.7089 367.227 82.7689 365.067 82.8889C365.227 84.7289 365.307 87.8689 365.307 92.3089V101.549C365.307 105.709 365.607 108.769 366.207 110.729C365.527 110.929 364.647 111.029 363.567 111.029C362.487 111.029 361.747 110.829 361.347 110.429C360.987 110.029 360.807 109.349 360.807 108.389C360.807 107.909 360.827 106.689 360.867 104.729C360.907 102.769 360.927 101.229 360.927 100.109V90.7489C360.927 86.3489 360.707 82.7689 360.267 80.0089C362.427 79.6489 364.947 79.4689 367.827 79.4689C376.787 79.4689 381.267 82.6089 381.267 88.8889C381.267 91.3689 380.547 93.3889 379.107 94.9489C377.707 96.5089 375.827 97.5489 373.467 98.0689C375.907 102.749 377.667 105.629 378.747 106.709ZM394.892 83.3089C395.012 84.2689 395.072 87.3689 395.072 92.6089H398.912C401.592 92.6089 403.512 92.5489 404.672 92.4289C404.792 92.7489 404.852 93.1889 404.852 93.7489C404.852 94.5489 404.672 95.1089 404.312 95.4289C403.992 95.7089 403.472 95.8689 402.752 95.9089C401.912 95.9489 400.772 95.9689 399.332 95.9689H395.072C395.072 102.409 395.192 106.289 395.432 107.609C396.872 107.689 398.032 107.729 398.912 107.729C404.192 107.729 407.652 107.369 409.292 106.649C409.572 107.369 409.712 108.129 409.712 108.929C409.712 109.569 409.552 110.029 409.232 110.309C408.632 110.749 405.912 110.969 401.072 110.969C400.112 110.969 398.572 110.949 396.452 110.909C394.332 110.909 393.232 110.909 393.152 110.909C392.152 110.869 391.472 110.649 391.112 110.249C390.792 109.849 390.632 109.189 390.632 108.269C390.632 107.709 390.652 106.489 390.692 104.609C390.732 102.689 390.752 101.189 390.752 100.109V90.9289C390.752 86.3689 390.512 82.7889 390.032 80.1889C393.952 79.9089 397.612 79.7689 401.012 79.7689C405.852 79.7689 408.572 80.0089 409.172 80.4889C409.492 80.7689 409.652 81.2289 409.652 81.8689C409.652 82.6689 409.512 83.4289 409.232 84.1489C407.312 83.5089 404.312 83.1889 400.232 83.1889C398.672 83.1889 396.892 83.2289 394.892 83.3089Z" fill="#0C0F86"/>
</svg>
