<svg width="24" height="20" viewBox="0 0 24 20" fill="none" xmlns="http://www.w3.org/2000/svg">
<path d="M7.54792 20.0002C16.6051 20.0002 21.5613 12.3063 21.5613 5.63135C21.5613 5.41114 21.5565 5.19368 21.5468 4.97897C22.5093 4.26481 23.3399 3.38061 24 2.3678C23.1017 2.77664 22.1484 3.04445 21.1723 3.16222C22.2002 2.5312 22.9697 1.53909 23.338 0.370194C22.3723 0.957466 21.3161 1.37188 20.2148 1.59568C19.4727 0.784632 18.4906 0.247175 17.4204 0.0665954C16.3503 -0.113984 15.2519 0.0723958 14.2955 0.596853C13.3392 1.12131 12.5782 1.95456 12.1306 2.96748C11.683 3.98039 11.5736 5.11642 11.8196 6.1995C9.86196 6.09899 7.94683 5.57739 6.19859 4.66857C4.45034 3.75976 2.90807 2.48405 1.67195 0.924304C1.04208 2.03579 0.848963 3.35161 1.1319 4.60395C1.41483 5.85629 2.15255 6.95101 3.1949 7.66529C2.41351 7.64041 1.64932 7.42378 0.966443 7.03355C0.966443 7.05502 0.966443 7.07567 0.966443 7.09797C0.966458 8.26306 1.35938 9.3923 2.07862 10.2943C2.79785 11.1963 3.79914 11.8155 4.91275 12.047C4.49003 12.1641 4.05399 12.223 3.61611 12.222C3.3055 12.2219 2.99563 12.1912 2.69074 12.1304C3.00454 13.1343 3.61666 14.0125 4.44141 14.6419C5.26616 15.2714 6.26224 15.6207 7.2902 15.6408C5.54587 17.0446 3.39166 17.8058 1.17423 17.802C0.781811 17.8023 0.389715 17.7789 0 17.7318C2.25128 19.2155 4.87169 20.0031 7.54792 20.0002Z" fill="white"/>
</svg>
